{
  "accessors": [
    {
      "bufferView": 2,
      "componentType": 5126,
      "count": 4710,
      "max": [
        1.2799999713897705,
        1.2799999713897705,
        1.4087179899215698
      ],
      "min": [
        -1.2799999713897705,
        -1.2799999713897705,
        0.03604299947619438
      ],
      "type": "VEC3"
    },
    {
      "bufferView": 2,
      "byteOffset": 56520,
      "componentType": 5126,
      "count": 4710,
      "max": [
        1.0,
        1.0,
        1.0
      ],
      "min": [
        -1.0,
        -1.0,
        -1.0
      ],
      "type": "VEC3"
    },
    {
      "bufferView": 3,
      "componentType": 5126,
      "count": 4710,
      "max": [
        1.0,
        1.0,
        0.7571805715560913,
        1.0
      ],
      "min": [
        -1.0,
        -1.0,
        -0.7566570043563843,
        1.0
      ],
      "type": "VEC4"
    },
    {
      "bufferView": 1,
      "componentType": 5126,
      "count": 4710,
      "max": [
        0.9877279996871948,
        0.9761360287666321
      ],
      "min": [
        0.03309899941086769,
        0.011199000291526318
      ],
      "type": "VEC2"
    },
    {
      "bufferView": 0,
      "componentType": 5125,
      "count": 22056,
      "type": "SCALAR"
    }
  ],
  "asset": {
    "extras": {
      "author": "Andrej Grave (https://sketchfab.com/andrej.grave)",
      "license": "CC-BY-4.0 (http://creativecommons.org/licenses/by/4.0/)",
      "source": "https://sketchfab.com/3d-models/round-glass-table-6b8f77da04c74ddf9e19acd7499a9966",
      "title": "Round Glass Table"
    },
    "generator": "Sketchfab-13.28.0",
    "version": "2.0"
  },
  "bufferViews": [
    {
      "buffer": 0,
      "byteLength": 88224,
      "name": "floatBufferViews",
      "target": 34963
    },
    {
      "buffer": 0,
      "byteLength": 37680,
      "byteOffset": 88224,
      "byteStride": 8,
      "name": "floatBufferViews",
      "target": 34962
    },
    {
      "buffer": 0,
      "byteLength": 113040,
      "byteOffset": 125904,
      "byteStride": 12,
      "name": "floatBufferViews",
      "target": 34962
    },
    {
      "buffer": 0,
      "byteLength": 75360,
      "byteOffset": 238944,
      "byteStride": 16,
      "name": "floatBufferViews",
      "target": 34962
    }
  ],
  "buffers": [
    {
      "byteLength": 314304,
      "uri": "scene.bin"
    }
  ],
  "extensionsUsed": [
    "KHR_materials_transmission"
  ],
  "images": [
    {
      "uri": "textures/m_dining_table_baseColor.png"
    },
    {
      "uri": "textures/m_dining_table_metallicRoughness.png"
    },
    {
      "uri": "textures/m_dining_table_normal.png"
    },
    {
      "uri": "textures/m_dining_table_transmission.png"
    }
  ],
  "materials": [
    {
      "alphaMode": "BLEND",
      "doubleSided": true,
      "extensions": {
        "KHR_materials_transmission": {
          "transmissionFactor": 1.0,
          "transmissionTexture": {
            "index": 3
          }
        }
      },
      "name": "m_dining_table",
      "normalTexture": {
        "index": 2
      },
      "pbrMetallicRoughness": {
        "baseColorFactor": [
          0.525821634423503,
          0.6566690482320641,
          0.732532985489547,
          1.0
        ],
        "baseColorTexture": {
          "index": 0
        },
        "metallicFactor": 0.0,
        "metallicRoughnessTexture": {
          "index": 1
        },
        "roughnessFactor": 0.33843983956377466
      }
    }
  ],
  "meshes": [
    {
      "name": "Object_0",
      "primitives": [
        {
          "attributes": {
            "NORMAL": 1,
            "POSITION": 0,
            "TANGENT": 2,
            "TEXCOORD_0": 3
          },
          "indices": 4,
          "material": 0,
          "mode": 4
        }
      ]
    }
  ],
  "nodes": [
    {
      "children": [
        1
      ],
      "matrix": [
        1.0,
        0.0,
        0.0,
        0.0,
        0.0,
        2.220446049250313e-16,
        -1.0,
        0.0,
        0.0,
        1.0,
        2.220446049250313e-16,
        0.0,
        0.0,
        0.0,
        0.0,
        1.0
      ],
      "name": "Sketchfab_model"
    },
    {
      "children": [
        2
      ],
      "name": "dining_round_table.obj.cleaner.materialmerger.gles"
    },
    {
      "mesh": 0,
      "name": "Object_2"
    }
  ],
  "samplers": [
    {
      "magFilter": 9729,
      "minFilter": 9987,
      "wrapS": 10497,
      "wrapT": 10497
    }
  ],
  "scene": 0,
  "scenes": [
    {
      "name": "Sketchfab_Scene",
      "nodes": [
        0
      ]
    }
  ],
  "textures": [
    {
      "sampler": 0,
      "source": 0
    },
    {
      "sampler": 0,
      "source": 1
    },
    {
      "sampler": 0,
      "source": 2
    },
    {
      "sampler": 0,
      "source": 3
    }
  ]
}
